# Original KDT-2-inspired blockout; chosen housing dimensions, not exact replica.
mtllib lrf-concept.mtl
o Housing
usemtl Paint
v -0.130000 0.040000 -0.260000
v 0.130000 0.040000 -0.260000
v 0.130000 0.260000 -0.260000
v -0.130000 0.260000 -0.260000
v -0.130000 0.040000 0.260000
v 0.130000 0.040000 0.260000
v 0.130000 0.260000 0.260000
v -0.130000 0.260000 0.260000
f 5 6 7
f 5 7 8
f 4 3 2
f 4 2 1
f 1 2 6
f 1 6 5
f 8 7 3
f 8 3 4
f 2 3 7
f 2 7 6
f 5 8 4
f 5 4 1
o TopLid
usemtl PaintLight
v -0.132500 0.260000 -0.262500
v 0.132500 0.260000 -0.262500
v 0.132500 0.278000 -0.262500
v -0.132500 0.278000 -0.262500
v -0.132500 0.260000 0.262500
v 0.132500 0.260000 0.262500
v 0.132500 0.278000 0.262500
v -0.132500 0.278000 0.262500
f 13 14 15
f 13 15 16
f 12 11 10
f 12 10 9
f 9 10 14
f 9 14 13
f 16 15 11
f 16 11 12
f 10 11 15
f 10 15 14
f 13 16 12
f 13 12 9
o FrontGlass
usemtl Glass
v -0.091500 0.111000 0.260000
v 0.091500 0.111000 0.260000
v 0.091500 0.201000 0.260000
v -0.091500 0.201000 0.260000
v -0.091500 0.111000 0.266000
v 0.091500 0.111000 0.266000
v 0.091500 0.201000 0.266000
v -0.091500 0.201000 0.266000
f 21 22 23
f 21 23 24
f 20 19 18
f 20 18 17
f 17 18 22
f 17 22 21
f 24 23 19
f 24 19 20
f 18 19 23
f 18 23 22
f 21 24 20
f 21 20 17
o FrontCover_Open
usemtl PaintLight
v -0.111000 0.258000 0.257000
v 0.111000 0.258000 0.257000
v 0.111000 0.274000 0.257000
v -0.111000 0.274000 0.257000
v -0.111000 0.258000 0.287000
v 0.111000 0.258000 0.287000
v 0.111000 0.274000 0.287000
v -0.111000 0.274000 0.287000
f 29 30 31
f 29 31 32
f 28 27 26
f 28 26 25
f 25 26 30
f 25 30 29
f 32 31 27
f 32 27 28
f 26 27 31
f 26 31 30
f 29 32 28
f 29 28 25
o CoverDrive
usemtl Paint
v -0.192000 0.054500 0.141000
v -0.132000 0.054500 0.141000
v -0.132000 0.129500 0.141000
v -0.192000 0.129500 0.141000
v -0.192000 0.054500 0.241000
v -0.132000 0.054500 0.241000
v -0.132000 0.129500 0.241000
v -0.192000 0.129500 0.241000
f 37 38 39
f 37 39 40
f 36 35 34
f 36 34 33
f 33 34 38
f 33 38 37
f 40 39 35
f 40 35 36
f 34 35 39
f 34 39 38
f 37 40 36
f 37 36 33
o MountLeft
usemtl Mount
v -0.097500 0.000000 -0.160000
v -0.052500 0.000000 -0.160000
v -0.052500 0.040000 -0.160000
v -0.097500 0.040000 -0.160000
v -0.097500 0.000000 0.160000
v -0.052500 0.000000 0.160000
v -0.052500 0.040000 0.160000
v -0.097500 0.040000 0.160000
f 45 46 47
f 45 47 48
f 44 43 42
f 44 42 41
f 41 42 46
f 41 46 45
f 48 47 43
f 48 43 44
f 42 43 47
f 42 47 46
f 45 48 44
f 45 44 41
o MountRight
usemtl Mount
v 0.052500 0.000000 -0.160000
v 0.097500 0.000000 -0.160000
v 0.097500 0.040000 -0.160000
v 0.052500 0.040000 -0.160000
v 0.052500 0.000000 0.160000
v 0.097500 0.000000 0.160000
v 0.097500 0.040000 0.160000
v 0.052500 0.040000 0.160000
f 53 54 55
f 53 55 56
f 52 51 50
f 52 50 49
f 49 50 54
f 49 54 53
f 56 55 51
f 56 51 52
f 50 51 55
f 50 55 54
f 53 56 52
f 53 52 49
o HingeLeft
usemtl Mount
v -0.097500 0.270500 -0.192500
v -0.062500 0.270500 -0.192500
v -0.062500 0.285500 -0.192500
v -0.097500 0.285500 -0.192500
v -0.097500 0.270500 -0.157500
v -0.062500 0.270500 -0.157500
v -0.062500 0.285500 -0.157500
v -0.097500 0.285500 -0.157500
f 61 62 63
f 61 63 64
f 60 59 58
f 60 58 57
f 57 58 62
f 57 62 61
f 64 63 59
f 64 59 60
f 58 59 63
f 58 63 62
f 61 64 60
f 61 60 57
o HingeRight
usemtl Mount
v 0.062500 0.270500 -0.192500
v 0.097500 0.270500 -0.192500
v 0.097500 0.285500 -0.192500
v 0.062500 0.285500 -0.192500
v 0.062500 0.270500 -0.157500
v 0.097500 0.270500 -0.157500
v 0.097500 0.285500 -0.157500
v 0.062500 0.285500 -0.157500
f 69 70 71
f 69 71 72
f 68 67 66
f 68 66 65
f 65 66 70
f 65 70 69
f 72 71 67
f 72 67 68
f 66 67 71
f 66 71 70
f 69 72 68
f 69 68 65
o CableConnector
usemtl Mount
v 0.068500 0.070000 -0.288000
v 0.095500 0.070000 -0.288000
v 0.095500 0.110000 -0.288000
v 0.068500 0.110000 -0.288000
v 0.068500 0.070000 -0.260000
v 0.095500 0.070000 -0.260000
v 0.095500 0.110000 -0.260000
v 0.068500 0.110000 -0.260000
f 77 78 79
f 77 79 80
f 76 75 74
f 76 74 73
f 73 74 78
f 73 78 77
f 80 79 75
f 80 75 76
f 74 75 79
f 74 79 78
f 77 80 76
f 77 76 73
