# Original tank-mounted optical RF concept. No tripod. Not a historical replica.
mtllib optical-rangefinder.mtl
v -0.240000 0.075000 0.000000
v -0.240000 0.064952 0.037500
v -0.240000 0.037500 0.064952
v -0.240000 0.000000 0.075000
v -0.240000 -0.037500 0.064952
v -0.240000 -0.064952 0.037500
v -0.240000 -0.075000 0.000000
v -0.240000 -0.064952 -0.037500
v -0.240000 -0.037500 -0.064952
v -0.240000 -0.000000 -0.075000
v -0.240000 0.037500 -0.064952
v -0.240000 0.064952 -0.037500
v 0.240000 0.075000 0.000000
v 0.240000 0.064952 0.037500
v 0.240000 0.037500 0.064952
v 0.240000 0.000000 0.075000
v 0.240000 -0.037500 0.064952
v 0.240000 -0.064952 0.037500
v 0.240000 -0.075000 0.000000
v 0.240000 -0.064952 -0.037500
v 0.240000 -0.037500 -0.064952
v 0.240000 -0.000000 -0.075000
v 0.240000 0.037500 -0.064952
v 0.240000 0.064952 -0.037500
v -0.240000 0.000000 0.000000
v 0.240000 0.000000 0.000000
v -0.940000 0.035000 0.000000
v -0.940000 0.030311 0.017500
v -0.940000 0.017500 0.030311
v -0.940000 0.000000 0.035000
v -0.940000 -0.017500 0.030311
v -0.940000 -0.030311 0.017500
v -0.940000 -0.035000 0.000000
v -0.940000 -0.030311 -0.017500
v -0.940000 -0.017500 -0.030311
v -0.940000 -0.000000 -0.035000
v -0.940000 0.017500 -0.030311
v -0.940000 0.030311 -0.017500
v -0.240000 0.035000 0.000000
v -0.240000 0.030311 0.017500
v -0.240000 0.017500 0.030311
v -0.240000 0.000000 0.035000
v -0.240000 -0.017500 0.030311
v -0.240000 -0.030311 0.017500
v -0.240000 -0.035000 0.000000
v -0.240000 -0.030311 -0.017500
v -0.240000 -0.017500 -0.030311
v -0.240000 -0.000000 -0.035000
v -0.240000 0.017500 -0.030311
v -0.240000 0.030311 -0.017500
v -0.940000 0.000000 0.000000
v -0.240000 0.000000 0.000000
v 0.240000 0.035000 0.000000
v 0.240000 0.030311 0.017500
v 0.240000 0.017500 0.030311
v 0.240000 0.000000 0.035000
v 0.240000 -0.017500 0.030311
v 0.240000 -0.030311 0.017500
v 0.240000 -0.035000 0.000000
v 0.240000 -0.030311 -0.017500
v 0.240000 -0.017500 -0.030311
v 0.240000 -0.000000 -0.035000
v 0.240000 0.017500 -0.030311
v 0.240000 0.030311 -0.017500
v 0.940000 0.035000 0.000000
v 0.940000 0.030311 0.017500
v 0.940000 0.017500 0.030311
v 0.940000 0.000000 0.035000
v 0.940000 -0.017500 0.030311
v 0.940000 -0.030311 0.017500
v 0.940000 -0.035000 0.000000
v 0.940000 -0.030311 -0.017500
v 0.940000 -0.017500 -0.030311
v 0.940000 -0.000000 -0.035000
v 0.940000 0.017500 -0.030311
v 0.940000 0.030311 -0.017500
v 0.240000 0.000000 0.000000
v 0.940000 0.000000 0.000000
v -0.350000 0.055000 0.000000
v -0.350000 0.047631 0.027500
v -0.350000 0.027500 0.047631
v -0.350000 0.000000 0.055000
v -0.350000 -0.027500 0.047631
v -0.350000 -0.047631 0.027500
v -0.350000 -0.055000 0.000000
v -0.350000 -0.047631 -0.027500
v -0.350000 -0.027500 -0.047631
v -0.350000 -0.000000 -0.055000
v -0.350000 0.027500 -0.047631
v -0.350000 0.047631 -0.027500
v -0.240000 0.055000 0.000000
v -0.240000 0.047631 0.027500
v -0.240000 0.027500 0.047631
v -0.240000 0.000000 0.055000
v -0.240000 -0.027500 0.047631
v -0.240000 -0.047631 0.027500
v -0.240000 -0.055000 0.000000
v -0.240000 -0.047631 -0.027500
v -0.240000 -0.027500 -0.047631
v -0.240000 -0.000000 -0.055000
v -0.240000 0.027500 -0.047631
v -0.240000 0.047631 -0.027500
v -0.350000 0.000000 0.000000
v -0.240000 0.000000 0.000000
v 0.240000 0.055000 0.000000
v 0.240000 0.047631 0.027500
v 0.240000 0.027500 0.047631
v 0.240000 0.000000 0.055000
v 0.240000 -0.027500 0.047631
v 0.240000 -0.047631 0.027500
v 0.240000 -0.055000 0.000000
v 0.240000 -0.047631 -0.027500
v 0.240000 -0.027500 -0.047631
v 0.240000 -0.000000 -0.055000
v 0.240000 0.027500 -0.047631
v 0.240000 0.047631 -0.027500
v 0.350000 0.055000 0.000000
v 0.350000 0.047631 0.027500
v 0.350000 0.027500 0.047631
v 0.350000 0.000000 0.055000
v 0.350000 -0.027500 0.047631
v 0.350000 -0.047631 0.027500
v 0.350000 -0.055000 0.000000
v 0.350000 -0.047631 -0.027500
v 0.350000 -0.027500 -0.047631
v 0.350000 -0.000000 -0.055000
v 0.350000 0.027500 -0.047631
v 0.350000 0.047631 -0.027500
v 0.240000 0.000000 0.000000
v 0.350000 0.000000 0.000000
v -1.070000 -0.060000 -0.080000
v -0.930000 -0.060000 -0.080000
v -0.930000 0.060000 -0.080000
v -1.070000 0.060000 -0.080000
v -1.070000 -0.060000 0.080000
v -0.930000 -0.060000 0.080000
v -0.930000 0.060000 0.080000
v -1.070000 0.060000 0.080000
v 0.930000 -0.060000 -0.080000
v 1.070000 -0.060000 -0.080000
v 1.070000 0.060000 -0.080000
v 0.930000 0.060000 -0.080000
v 0.930000 -0.060000 0.080000
v 1.070000 -0.060000 0.080000
v 1.070000 0.060000 0.080000
v 0.930000 0.060000 0.080000
v -1.045000 -0.037500 0.080000
v -0.955000 -0.037500 0.080000
v -0.955000 0.037500 0.080000
v -1.045000 0.037500 0.080000
v -1.045000 -0.037500 0.084000
v -0.955000 -0.037500 0.084000
v -0.955000 0.037500 0.084000
v -1.045000 0.037500 0.084000
v 0.955000 -0.037500 0.080000
v 1.045000 -0.037500 0.080000
v 1.045000 0.037500 0.080000
v 0.955000 0.037500 0.080000
v 0.955000 -0.037500 0.084000
v 1.045000 -0.037500 0.084000
v 1.045000 0.037500 0.084000
v 0.955000 0.037500 0.084000
v -0.045000 -0.032500 -0.162500
v 0.045000 -0.032500 -0.162500
v 0.045000 0.032500 -0.162500
v -0.045000 0.032500 -0.162500
v -0.045000 -0.032500 -0.067500
v 0.045000 -0.032500 -0.067500
v 0.045000 0.032500 -0.067500
v -0.045000 0.032500 -0.067500
v -0.017500 0.070000 -0.047500
v 0.017500 0.070000 -0.047500
v 0.017500 0.110000 -0.047500
v -0.017500 0.110000 -0.047500
v -0.017500 0.070000 -0.012500
v 0.017500 0.070000 -0.012500
v 0.017500 0.110000 -0.012500
v -0.017500 0.110000 -0.012500
o CenterInstrument
usemtl Paint
f 1 2 14
f 1 14 13
f 25 2 1
f 26 13 14
f 2 3 15
f 2 15 14
f 25 3 2
f 26 14 15
f 3 4 16
f 3 16 15
f 25 4 3
f 26 15 16
f 4 5 17
f 4 17 16
f 25 5 4
f 26 16 17
f 5 6 18
f 5 18 17
f 25 6 5
f 26 17 18
f 6 7 19
f 6 19 18
f 25 7 6
f 26 18 19
f 7 8 20
f 7 20 19
f 25 8 7
f 26 19 20
f 8 9 21
f 8 21 20
f 25 9 8
f 26 20 21
f 9 10 22
f 9 22 21
f 25 10 9
f 26 21 22
f 10 11 23
f 10 23 22
f 25 11 10
f 26 22 23
f 11 12 24
f 11 24 23
f 25 12 11
f 26 23 24
f 12 1 13
f 12 13 24
f 25 1 12
f 26 24 13
o TubeLeft
usemtl Tube
f 27 28 40
f 27 40 39
f 51 28 27
f 52 39 40
f 28 29 41
f 28 41 40
f 51 29 28
f 52 40 41
f 29 30 42
f 29 42 41
f 51 30 29
f 52 41 42
f 30 31 43
f 30 43 42
f 51 31 30
f 52 42 43
f 31 32 44
f 31 44 43
f 51 32 31
f 52 43 44
f 32 33 45
f 32 45 44
f 51 33 32
f 52 44 45
f 33 34 46
f 33 46 45
f 51 34 33
f 52 45 46
f 34 35 47
f 34 47 46
f 51 35 34
f 52 46 47
f 35 36 48
f 35 48 47
f 51 36 35
f 52 47 48
f 36 37 49
f 36 49 48
f 51 37 36
f 52 48 49
f 37 38 50
f 37 50 49
f 51 38 37
f 52 49 50
f 38 27 39
f 38 39 50
f 51 27 38
f 52 50 39
o TubeRight
usemtl Tube
f 53 54 66
f 53 66 65
f 77 54 53
f 78 65 66
f 54 55 67
f 54 67 66
f 77 55 54
f 78 66 67
f 55 56 68
f 55 68 67
f 77 56 55
f 78 67 68
f 56 57 69
f 56 69 68
f 77 57 56
f 78 68 69
f 57 58 70
f 57 70 69
f 77 58 57
f 78 69 70
f 58 59 71
f 58 71 70
f 77 59 58
f 78 70 71
f 59 60 72
f 59 72 71
f 77 60 59
f 78 71 72
f 60 61 73
f 60 73 72
f 77 61 60
f 78 72 73
f 61 62 74
f 61 74 73
f 77 62 61
f 78 73 74
f 62 63 75
f 62 75 74
f 77 63 62
f 78 74 75
f 63 64 76
f 63 76 75
f 77 64 63
f 78 75 76
f 64 53 65
f 64 65 76
f 77 53 64
f 78 76 65
o SleeveLeft
usemtl Paint
f 79 80 92
f 79 92 91
f 103 80 79
f 104 91 92
f 80 81 93
f 80 93 92
f 103 81 80
f 104 92 93
f 81 82 94
f 81 94 93
f 103 82 81
f 104 93 94
f 82 83 95
f 82 95 94
f 103 83 82
f 104 94 95
f 83 84 96
f 83 96 95
f 103 84 83
f 104 95 96
f 84 85 97
f 84 97 96
f 103 85 84
f 104 96 97
f 85 86 98
f 85 98 97
f 103 86 85
f 104 97 98
f 86 87 99
f 86 99 98
f 103 87 86
f 104 98 99
f 87 88 100
f 87 100 99
f 103 88 87
f 104 99 100
f 88 89 101
f 88 101 100
f 103 89 88
f 104 100 101
f 89 90 102
f 89 102 101
f 103 90 89
f 104 101 102
f 90 79 91
f 90 91 102
f 103 79 90
f 104 102 91
o SleeveRight
usemtl Paint
f 105 106 118
f 105 118 117
f 129 106 105
f 130 117 118
f 106 107 119
f 106 119 118
f 129 107 106
f 130 118 119
f 107 108 120
f 107 120 119
f 129 108 107
f 130 119 120
f 108 109 121
f 108 121 120
f 129 109 108
f 130 120 121
f 109 110 122
f 109 122 121
f 129 110 109
f 130 121 122
f 110 111 123
f 110 123 122
f 129 111 110
f 130 122 123
f 111 112 124
f 111 124 123
f 129 112 111
f 130 123 124
f 112 113 125
f 112 125 124
f 129 113 112
f 130 124 125
f 113 114 126
f 113 126 125
f 129 114 113
f 130 125 126
f 114 115 127
f 114 127 126
f 129 115 114
f 130 126 127
f 115 116 128
f 115 128 127
f 129 116 115
f 130 127 128
f 116 105 117
f 116 117 128
f 129 105 116
f 130 128 117
o EndHeadLeft
usemtl Paint
f 135 136 137
f 135 137 138
f 134 133 132
f 134 132 131
f 131 132 136
f 131 136 135
f 138 137 133
f 138 133 134
f 132 133 137
f 132 137 136
f 135 138 134
f 135 134 131
o EndHeadRight
usemtl Paint
f 143 144 145
f 143 145 146
f 142 141 140
f 142 140 139
f 139 140 144
f 139 144 143
f 146 145 141
f 146 141 142
f 140 141 145
f 140 145 144
f 143 146 142
f 143 142 139
o OpticalWindowLeft
usemtl Glass
f 151 152 153
f 151 153 154
f 150 149 148
f 150 148 147
f 147 148 152
f 147 152 151
f 154 153 149
f 154 149 150
f 148 149 153
f 148 153 152
f 151 154 150
f 151 150 147
o OpticalWindowRight
usemtl Glass
f 159 160 161
f 159 161 162
f 158 157 156
f 158 156 155
f 155 156 160
f 155 160 159
f 162 161 157
f 162 157 158
f 156 157 161
f 156 161 160
f 159 162 158
f 159 158 155
o InsideEyepiece
usemtl Tube
f 167 168 169
f 167 169 170
f 166 165 164
f 166 164 163
f 163 164 168
f 163 168 167
f 170 169 165
f 170 165 166
f 164 165 169
f 164 169 168
f 167 170 166
f 167 166 163
o AdjustmentKnob
usemtl Tube
f 175 176 177
f 175 177 178
f 174 173 172
f 174 172 171
f 171 172 176
f 171 176 175
f 178 177 173
f 178 173 174
f 172 173 177
f 172 177 176
f 175 178 174
f 175 174 171
