# Original wall-mounted thermal head. +Yup +Zfront. Lens centred at native(0,0,.0409).
mtllib thermal-head.mtl
v -0.130000 -0.075000 0.000000
v 0.130000 -0.075000 0.000000
v 0.130000 0.075000 0.000000
v -0.130000 0.075000 0.000000
v -0.130000 -0.075000 0.008000
v 0.130000 -0.075000 0.008000
v 0.130000 0.075000 0.008000
v -0.130000 0.075000 0.008000
v -0.100000 -0.050000 0.003000
v 0.100000 -0.050000 0.003000
v 0.100000 0.050000 0.003000
v -0.100000 0.050000 0.003000
v -0.100000 -0.050000 0.023000
v 0.100000 -0.050000 0.023000
v 0.100000 0.050000 0.023000
v -0.100000 0.050000 0.023000
v -0.108000 -0.060000 0.008000
v 0.108000 -0.060000 0.008000
v 0.120000 -0.048000 0.008000
v 0.120000 0.048000 0.008000
v 0.108000 0.060000 0.008000
v -0.108000 0.060000 0.008000
v -0.120000 0.048000 0.008000
v -0.120000 -0.048000 0.008000
v -0.108000 -0.060000 0.032900
v 0.108000 -0.060000 0.032900
v 0.120000 -0.048000 0.032900
v 0.120000 0.048000 0.032900
v 0.108000 0.060000 0.032900
v -0.108000 0.060000 0.032900
v -0.120000 0.048000 0.032900
v -0.120000 -0.048000 0.032900
v -0.125000 0.060000 0.000000
v 0.125000 0.060000 0.000000
v 0.125000 0.074000 0.000000
v -0.125000 0.074000 0.000000
v -0.125000 0.060000 0.056000
v 0.125000 0.060000 0.056000
v 0.125000 0.074000 0.056000
v -0.125000 0.074000 0.056000
v 0.000000 0.000000 0.035900
v 0.052000 0.000000 0.035900
v 0.048042 0.019900 0.035900
v 0.036770 0.036770 0.035900
v 0.019900 0.048042 0.035900
v 0.000000 0.052000 0.035900
v -0.019900 0.048042 0.035900
v -0.036770 0.036770 0.035900
v -0.048042 0.019900 0.035900
v -0.052000 0.000000 0.035900
v -0.048042 -0.019900 0.035900
v -0.036770 -0.036770 0.035900
v -0.019900 -0.048042 0.035900
v -0.000000 -0.052000 0.035900
v 0.019900 -0.048042 0.035900
v 0.036770 -0.036770 0.035900
v 0.048042 -0.019900 0.035900
v 0.000000 0.000000 0.040900
v 0.043000 0.000000 0.040900
v 0.039727 0.016455 0.040900
v 0.030406 0.030406 0.040900
v 0.016455 0.039727 0.040900
v 0.000000 0.043000 0.040900
v -0.016455 0.039727 0.040900
v -0.030406 0.030406 0.040900
v -0.039727 0.016455 0.040900
v -0.043000 0.000000 0.040900
v -0.039727 -0.016455 0.040900
v -0.030406 -0.030406 0.040900
v -0.016455 -0.039727 0.040900
v -0.000000 -0.043000 0.040900
v 0.016455 -0.039727 0.040900
v 0.030406 -0.030406 0.040900
v 0.039727 -0.016455 0.040900
v 0.094500 -0.059000 0.008000
v 0.119500 -0.059000 0.008000
v 0.119500 -0.035000 0.008000
v 0.094500 -0.035000 0.008000
v 0.094500 -0.059000 0.032000
v 0.119500 -0.059000 0.032000
v 0.119500 -0.035000 0.032000
v 0.094500 -0.035000 0.032000
o MountFlange
usemtl Dark
f 5 6 7
f 5 7 8
f 4 3 2
f 4 2 1
f 1 2 6
f 1 6 5
f 8 7 3
f 8 3 4
f 2 3 7
f 2 7 6
f 5 8 4
f 5 4 1
o RearHousing
usemtl Paint
f 13 14 15
f 13 15 16
f 12 11 10
f 12 10 9
f 9 10 14
f 9 14 13
f 16 15 11
f 16 11 12
f 10 11 15
f 10 15 14
f 13 16 12
f 13 12 9
o SensorHead
usemtl Paint
f 17 18 26
f 17 26 25
f 18 19 27
f 18 27 26
f 19 20 28
f 19 28 27
f 20 21 29
f 20 29 28
f 21 22 30
f 21 30 29
f 22 23 31
f 22 31 30
f 23 24 32
f 23 32 31
f 24 17 25
f 24 25 32
f 17 19 18
f 25 26 27
f 17 20 19
f 25 27 28
f 17 21 20
f 25 28 29
f 17 22 21
f 25 29 30
f 17 23 22
f 25 30 31
f 17 24 23
f 25 31 32
o ProtectiveBrow
usemtl Paint
f 37 38 39
f 37 39 40
f 36 35 34
f 36 34 33
f 33 34 38
f 33 38 37
f 40 39 35
f 40 35 36
f 34 35 39
f 34 39 38
f 37 40 36
f 37 36 33
o LensRecess
usemtl Dark
f 41 42 43
f 41 43 44
f 41 44 45
f 41 45 46
f 41 46 47
f 41 47 48
f 41 48 49
f 41 49 50
f 41 50 51
f 41 51 52
f 41 52 53
f 41 53 54
f 41 54 55
f 41 55 56
f 41 56 57
f 41 57 42
o IRAperture
usemtl Lens
f 58 59 60
f 58 60 61
f 58 61 62
f 58 62 63
f 58 63 64
f 58 64 65
f 58 65 66
f 58 66 67
f 58 67 68
f 58 68 69
f 58 69 70
f 58 70 71
f 58 71 72
f 58 72 73
f 58 73 74
f 58 74 59
o CableSocket
usemtl Dark
f 79 80 81
f 79 81 82
f 78 77 76
f 78 76 75
f 75 76 80
f 75 80 79
f 82 81 77
f 82 77 78
f 76 77 81
f 76 81 80
f 79 82 78
f 79 78 75
